<svg width="188" height="115" viewBox="0 0 188 115" fill="none" xmlns="http://www.w3.org/2000/svg">
<path d="M0.951088 6.74228C0.951088 3.84807 3.30244 0.977803 6.21756 0.977803L182.86 0.938721C185.775 0.938721 187.473 4.95894 187.473 7.85315L187.322 108.931C187.322 111.825 184.959 114.171 182.044 114.171H6.8042C3.88908 114.171 1.52591 111.825 1.52591 108.931L0.951088 6.74228Z" fill="#EAE9DE"/>
<path d="M96.7904 56.3143C95.2626 57.1041 93.4428 57.1041 91.915 56.3143L4.00196 10.8664C-0.89668 8.33395 0.694618 0.977803 6.21756 0.977803L182.86 0.938721C187.949 0.938713 189.333 11.261 184.434 13.7934L96.7904 56.3143Z" fill="#EAE9DE"/>
<path d="M182.86 0.938721L6.21756 0.977803M182.86 0.938721C185.775 0.938721 187.473 4.95894 187.473 7.85315L187.322 108.931C187.322 111.825 184.959 114.171 182.044 114.171H6.8042C3.88908 114.171 1.52591 111.825 1.52591 108.931L0.951088 6.74228C0.951088 3.84807 3.30244 0.977803 6.21756 0.977803M182.86 0.938721C187.949 0.938713 189.333 11.261 184.434 13.7934L96.7904 56.3143C95.2626 57.1041 93.4428 57.1041 91.915 56.3143L4.00196 10.8664C-0.89668 8.33395 0.694618 0.977803 6.21756 0.977803" stroke="#B9B9B9"/>
</svg>
