<svg width="236" height="306" viewBox="0 0 236 306" fill="none" xmlns="http://www.w3.org/2000/svg">
<path d="M77 210.5L67.5 219.5C67.5 205.995 57 194.981 57 181C54.811 152.759 26.963 132.074 0 134C1.01844 151.474 3.1147 161.255 22.5 178.5C34.9786 187.583 41.9782 191.896 54.5 193.5C63.6645 208.277 64.7547 219.117 61.5 232C56.8011 256.148 53.3544 278.451 74 295.5C88.1341 307.172 113.491 306.458 131 305.5L130.5 222C120.985 225.383 101.744 227.646 98 238.5V289.5C89.484 289.5 83.2139 284.864 79 277.5C73.9662 270.436 73.8628 264.331 75.5 252C78.3849 235.527 82.6894 227.12 95 213.5L124 178.5L154 150.5L169.5 136.5C183.651 136.5 199.377 131.452 211 123.5C224.183 113.419 235.908 99.1589 235 81.5C219.353 82.7518 203.564 85.5583 190.5 95C173.828 107.142 170.949 116.167 166.5 132.5L140 154.5C147.49 128.896 167.756 104.755 175 81L178.5 72.5L183 71.5C198.318 66.3941 210.531 57.9617 220.5 45.5C230.779 31.7418 234.381 16.9333 232.5 0C217.029 0 202.995 10.6626 192 20.5C177.941 34.9475 176 51.0889 176 70L174 74L164.5 94C161.85 100.221 160.216 103.352 156.5 107C155.394 107.391 154.922 106.958 154.5 104.5C154.458 94.0832 156.36 84.2262 154 74L150 64C145.256 54.1673 136.313 42.4914 125 40.5C118.506 50.0217 119.194 59.6132 120 70.5C121.883 82.0553 126.781 88.4131 135 96C141.415 101.581 144.904 103.75 151 106.5L152.5 110C152.668 113.552 152.374 115.373 150.5 118L143 131L129 152L121.5 162C112.091 172.31 106.779 177.778 97 185C93.6862 170.269 95 157 95 156.5C96.2337 126.892 84.924 94.7981 58.5 79.5C53.885 87.1953 53.5 95.8386 53.5 104.5C54.8755 120.217 56.4568 128.481 64 140C64 140 70.3475 148.596 75.5 153C78.261 155.36 83 158.5 83 158.5L90.5 162C93.5 171.5 91.8195 181.218 90.5 189.5C89.6247 194.994 90.9877 193.041 77 210.5Z" fill="url(#paint0_linear_315_453)"/>
<path d="M148.5 202L149 303.5C161.807 303.27 168.911 301.579 181.5 296.5V183C160.394 190.256 148.658 194.325 148.5 202Z" fill="url(#paint1_linear_315_453)"/>
<path d="M199 156.5V289.5C221.831 273.17 228.582 260.937 232.5 235L231.5 138.5C205.587 147.467 199.058 151.332 199 156.5Z" fill="url(#paint2_linear_315_453)"/>
<defs>
<linearGradient id="paint0_linear_315_453" x1="117.5" y1="0" x2="117.5" y2="305.5" gradientUnits="userSpaceOnUse">
<stop offset="0.192308" stop-color="#5BCA70"/>
<stop offset="1" stop-color="#167A44"/>
</linearGradient>
<linearGradient id="paint1_linear_315_453" x1="117.5" y1="0" x2="117.5" y2="305.5" gradientUnits="userSpaceOnUse">
<stop offset="0.192308" stop-color="#5BCA70"/>
<stop offset="1" stop-color="#167A44"/>
</linearGradient>
<linearGradient id="paint2_linear_315_453" x1="117.5" y1="0" x2="117.5" y2="305.5" gradientUnits="userSpaceOnUse">
<stop offset="0.192308" stop-color="#5BCA70"/>
<stop offset="1" stop-color="#167A44"/>
</linearGradient>
</defs>
</svg>
