<svg width="40" height="55" viewBox="0 0 40 55" fill="none" xmlns="http://www.w3.org/2000/svg">
<path d="M13.1036 37.649L11.4869 39.2373C11.4869 36.854 9.70009 34.9103 9.70009 32.4428C9.32758 27.4589 4.58848 23.8084 0 24.1483C0.173316 27.2322 0.53005 28.9583 3.82898 32.0016C5.95255 33.6047 7.14372 34.3658 9.27464 34.6488C10.8342 37.2567 11.0198 39.1697 10.4659 41.4433C9.66623 45.7049 9.0797 49.641 12.5931 52.6498C14.9984 54.7096 19.3135 54.5835 22.2932 54.4146L22.2081 39.6785C20.5888 40.2756 17.3145 40.675 16.6773 42.5904V51.5909C15.2281 51.5909 14.1611 50.7728 13.444 49.4731C12.5873 48.2264 12.5698 47.149 12.8484 44.9729C13.3393 42.0658 14.0718 40.5821 16.1668 38.1784L21.1019 32.0016L26.2072 27.0602L28.845 24.5895C31.2531 24.5895 33.9294 23.6987 35.9073 22.2952C38.1507 20.5162 40.1461 17.9995 39.9916 14.8831C37.3288 15.104 34.6419 15.5993 32.4187 17.2656C29.5816 19.4084 29.0916 21.0011 28.3345 23.8836L23.8248 27.7661C25.0993 23.2475 28.5483 18.9872 29.781 14.7949L30.3766 13.2948L31.1424 13.1183C33.7491 12.2172 35.8275 10.7291 37.524 8.52983C39.2733 6.10179 39.8863 3.48839 39.5661 0.5C36.9333 0.5 34.545 2.38174 32.674 4.11783C30.2815 6.66753 29.9511 9.51616 29.9511 12.8536L29.6108 13.5595L27.9941 17.0891C27.5431 18.187 27.2651 18.7395 26.6327 19.3833C26.4445 19.4524 26.3641 19.3759 26.2923 18.9421C26.2853 17.1038 26.6088 15.3642 26.2072 13.5595L25.5265 11.7947C24.7193 10.0594 23.1973 7.99888 21.2721 7.64743C20.1669 9.32782 20.284 11.0205 20.4212 12.9418C20.7416 14.9811 21.5752 16.1031 22.9739 17.4421C24.0656 18.427 24.6592 18.8097 25.6967 19.2951L25.952 19.9128C25.9805 20.5396 25.9305 20.861 25.6116 21.3246L24.3353 23.6188L21.9528 27.3249L20.6765 29.0897C19.0754 30.9092 18.1713 31.8742 16.5072 33.1488C15.9432 30.549 16.1668 28.2073 16.1668 28.1191C16.3767 22.8939 14.4521 17.2299 9.95535 14.5301C9.16998 15.8882 9.10447 17.4136 9.10447 18.9421C9.33854 21.7158 9.60764 23.1743 10.8913 25.2072C10.8913 25.2072 11.9715 26.7242 12.8484 27.5014C13.3182 27.9179 14.1247 28.472 14.1247 28.472L15.401 29.0897C15.9115 30.7663 15.6256 32.4813 15.401 33.9429C15.2521 34.9124 15.484 34.5678 13.1036 37.649Z" fill="url(#paint0_linear_202_456)"/>
<path d="M25.2713 36.1489L25.3564 54.0616C27.5359 54.0211 28.7448 53.7226 30.8871 52.8262V32.7958C27.2953 34.0763 25.2982 34.7945 25.2713 36.1489Z" fill="url(#paint1_linear_202_456)"/>
<path d="M33.8652 28.1191V51.5909C37.7505 48.7089 38.8994 46.5502 39.5661 41.9727L39.396 24.9424C34.9861 26.5249 33.875 27.2071 33.8652 28.1191Z" fill="url(#paint2_linear_202_456)"/>
<defs>
<linearGradient id="paint0_linear_202_456" x1="19.9957" y1="0.5" x2="19.9957" y2="54.4146" gradientUnits="userSpaceOnUse">
<stop offset="0.192308" stop-color="#5BCA70"/>
<stop offset="1" stop-color="#167A44"/>
</linearGradient>
<linearGradient id="paint1_linear_202_456" x1="19.9957" y1="0.5" x2="19.9957" y2="54.4146" gradientUnits="userSpaceOnUse">
<stop offset="0.192308" stop-color="#5BCA70"/>
<stop offset="1" stop-color="#167A44"/>
</linearGradient>
<linearGradient id="paint2_linear_202_456" x1="19.9957" y1="0.5" x2="19.9957" y2="54.4146" gradientUnits="userSpaceOnUse">
<stop offset="0.192308" stop-color="#5BCA70"/>
<stop offset="1" stop-color="#167A44"/>
</linearGradient>
</defs>
</svg>
